<?xml version="1.0" standalone="no"?><!DOCTYPE svg PUBLIC "-//W3C//DTD SVG 1.1//EN" "http://www.w3.org/Graphics/SVG/1.1/DTD/svg11.dtd"><svg t="1751874578001" class="icon" viewBox="0 0 2570 1024" version="1.1" xmlns="http://www.w3.org/2000/svg" p-id="7233" data-darkreader-inline-fill="" width="160.625" height="64" xmlns:xlink="http://www.w3.org/1999/xlink"><path d="M2317.931 848.448l-336.609-430.666v430.666h-196.811v-758.9h191.98l335.642 410.05V89.549h198.1v758.578h-192.302v0.322zM1320.99 873.25c-207.441 0-375.585-182.639-375.585-408.44S1113.548 56.691 1320.99 56.691c207.441 0 375.585 182.639 375.585 408.44s-168.144 408.119-375.585 408.119z m10.308-628.122c-109.52 0-198.1 93.735-198.1 209.374s88.58 209.374 198.1 209.374c109.518 0 198.1-93.735 198.1-209.374 0-115.64-88.582-209.374-198.1-209.374z m-761.478 649.06L465.455 705.75s153.004 7.087 187.792-83.75c34.788-90.835-136.576-203.575-145.918-272.185C486.07 91.802 778.55 56.692 778.55 56.692l83.428 167.5s-110.163-35.111-145.918 62.811c-24.803 109.841 137.22 160.413 145.918 314.061 8.697 219.682-292.158 293.124-292.158 293.124zM63.134 831.375S167.5 775.328 167.5 622.002V90.192h229.345v553.07s38.654 147.205-145.917 334.998c-0.645 1.933-187.793-146.884-187.793-146.884z m0 0" p-id="7234" fill="#1296db" data-darkreader-inline-fill="" style="--darkreader-inline-fill: var(--darkreader-background-1296db, #1191d4);"></path></svg>